<svg width="192" height="53" viewBox="0 0 192 53" fill="none" xmlns="http://www.w3.org/2000/svg">
<path d="M26.3875 51.7424C25.9286 51.7424 25.6035 51.6277 25.4123 51.3983C25.2593 51.1688 25.1829 50.8437 25.1829 50.4231C25.1829 49.5817 25.3741 48.2815 25.7565 46.5223C26.1772 44.9161 26.3875 43.5967 26.3875 42.5642C26.3875 39.5812 26.158 37.3058 25.6991 35.7379H23.9208C22.3529 35.7379 20.3069 35.6996 17.7829 35.6231L12.3907 35.5658H4.6465L4.76122 37.803C4.76122 39.5621 5.04804 41.7611 5.62169 44.3998C5.8129 45.4706 5.98499 46.5606 6.13796 47.6696C6.32918 48.7404 6.42478 49.7156 6.42478 50.5952V51.1114C6.04236 51.4939 5.64081 51.6851 5.22014 51.6851C4.22582 51.6851 3.44185 50.5187 2.86821 48.1859C2.29457 45.8148 2.00774 42.9657 2.00774 39.6386C2.00774 38.3001 2.06511 36.9807 2.17984 35.6805C1.3385 35.6422 0.764855 35.5084 0.458913 35.2789C0.152971 35.0112 0 34.6097 0 34.0743C0 33.6536 0.114728 33.3668 0.344185 33.2138C0.611884 33.0609 1.0708 32.9461 1.72092 32.8696L1.66356 31.3208L1.83565 28.6821C2.10335 24.3606 2.5049 20.8423 3.0403 18.1271C3.5757 15.4118 4.72298 13.0599 6.48215 11.0713C8.24131 9.08265 10.8801 8.08834 14.3984 8.08834C18.4139 8.08834 21.5498 10.2491 23.8061 14.5705C26.0624 18.8919 27.5922 23.7105 28.3952 29.0262C29.1983 34.342 29.5999 38.912 29.5999 42.7363C29.5999 44.113 29.5617 45.3177 29.4852 46.3502C29.4087 47.3445 29.2557 48.5874 29.0263 50.0789C28.1467 51.1879 27.2671 51.7424 26.3875 51.7424ZM25.4697 33.5007C24.7431 26.4257 23.4428 20.8805 21.5689 16.8651C19.695 12.8113 16.8842 10.7845 13.1364 10.7845C10.3447 10.7845 8.27956 12.0847 6.94106 14.6852C5.64081 17.2475 4.85683 20.001 4.58913 22.9457C4.32143 25.8903 4.18758 29.1983 4.18758 32.8696L25.4697 33.5007Z" fill="#0A122A"/>
<path d="M44.584 51.6277C42.7866 51.6277 41.2187 51.0158 39.8802 49.7921C38.5799 48.5683 37.5856 46.9812 36.8972 45.0308C36.2471 43.0805 35.922 41.0536 35.922 38.9502C35.922 35.2789 36.6869 32.1813 38.2166 29.6573C39.7846 27.1332 42.1556 25.8712 45.3298 25.8712C47.2419 25.8712 48.9055 26.2154 50.3204 26.9038C51.7737 27.5539 53.6667 28.6629 55.9995 30.2309L57.491 31.2635C57.2998 30.0014 57.0129 28.5482 56.6305 26.9038C56.2481 25.2593 55.9995 24.1312 55.8848 23.5193C55.2346 20.5364 54.7566 18.3183 54.4507 16.8651C54.183 15.3736 54.0491 14.0542 54.0491 12.9069C54.0491 10.8801 54.6228 9.86663 55.77 9.86663C56.1907 10.7845 56.6879 12.754 57.2615 15.7751C57.8352 18.7581 58.5618 22.85 59.4413 28.0511C60.3592 33.558 61.1623 38.0515 61.8506 41.5316C62.539 45.0117 63.1127 47.1916 63.5716 48.0711C63.5716 48.9507 62.9214 49.3905 61.6212 49.3905C60.6269 49.3905 59.9385 48.8169 59.5561 47.6696C59.2119 46.5223 59.0016 44.5146 58.9251 41.6464H58.4662C56.86 44.5528 54.7757 46.943 52.2135 48.8169C49.6512 50.6908 47.1081 51.6277 44.584 51.6277ZM45.3298 48.8169C46.8977 48.8169 48.5804 48.1667 50.3778 46.8665C52.2135 45.528 53.7623 43.9218 55.0243 42.0479C56.2863 40.1358 56.9173 38.4148 56.9173 36.8851V35.1642C52.9783 31.034 49.3453 28.9689 46.0181 28.9689C43.6853 28.9689 41.8879 29.8293 40.6259 31.5503C39.3639 33.233 38.7329 35.451 38.7329 38.2045L38.7903 39.4092C39.0197 42.3156 39.6698 44.6102 40.7406 46.2929C41.8114 47.9755 43.3411 48.8169 45.3298 48.8169Z" fill="#0A122A"/>
<path d="M108.747 52.3161C106.108 52.3161 103.852 51.5895 101.978 50.1362C100.104 48.683 98.6702 46.6944 97.6759 44.1704C96.7198 41.6464 96.2418 38.7782 96.2418 35.5658C96.2418 31.9709 97.0831 28.5673 98.7658 25.3549C100.448 22.1043 102.647 19.5038 105.363 17.5534C108.116 15.5648 110.965 14.5705 113.91 14.5705C116.396 14.5705 118.308 15.125 119.646 16.234C120.985 17.3431 121.654 18.6433 121.654 20.1348C121.654 21.0144 121.386 21.8175 120.851 22.5441C120.354 23.2707 119.627 23.8252 118.671 24.2077C118.556 23.9782 118.499 23.6149 118.499 23.1177C118.499 22.6588 118.556 22.1999 118.671 21.741C118.748 21.1291 118.786 20.6893 118.786 20.4216C118.786 20.0392 118.729 19.7141 118.614 19.4464C118.078 18.1079 116.625 17.4387 114.254 17.4387C113.604 17.4387 112.839 17.4961 111.96 17.6108C109.933 17.8785 107.925 18.8919 105.936 20.6511C103.948 22.372 102.322 24.5327 101.06 27.1332C99.7984 29.7337 99.1674 32.3916 99.1674 35.1068C99.1674 37.4779 99.5498 39.7342 100.315 41.8758C101.118 43.9792 102.265 45.681 103.756 46.9812C105.248 48.2815 107.026 48.9316 109.091 48.9316C111.768 48.9316 113.986 48.6065 115.746 47.9564C117.543 47.3063 119.302 46.312 121.023 44.9735C121.214 44.8205 121.425 44.744 121.654 44.744C122.075 44.744 122.362 44.9926 122.515 45.4898C122.706 46.4076 122.094 47.4019 120.679 48.4727C119.264 49.5435 117.428 50.4613 115.172 51.2262C112.916 51.9528 110.774 52.3161 108.747 52.3161Z" fill="#0A122A"/>
<path d="M154.112 51.7424C153.653 51.7424 153.328 51.6277 153.137 51.3983C152.984 51.1688 152.908 50.8437 152.908 50.4231C152.908 49.5817 153.099 48.2815 153.481 46.5223C153.902 44.9161 154.112 43.5967 154.112 42.5642C154.112 39.5812 153.883 37.3058 153.424 35.7379H151.646C150.078 35.7379 148.032 35.6996 145.508 35.6231L140.115 35.5658H132.371L132.486 37.803C132.486 39.5621 132.773 41.7611 133.347 44.3998C133.538 45.4706 133.71 46.5606 133.863 47.6696C134.054 48.7404 134.15 49.7156 134.15 50.5952V51.1114C133.767 51.4939 133.366 51.6851 132.945 51.6851C131.951 51.6851 131.167 50.5187 130.593 48.1859C130.019 45.8148 129.733 42.9657 129.733 39.6386C129.733 38.3001 129.79 36.9807 129.905 35.6805C129.063 35.6422 128.49 35.5084 128.184 35.2789C127.878 35.0112 127.725 34.6097 127.725 34.0743C127.725 33.6536 127.84 33.3668 128.069 33.2138C128.337 33.0609 128.796 32.9461 129.446 32.8696L129.388 31.3208L129.56 28.6821C129.828 24.3606 130.23 20.8423 130.765 18.1271C131.301 15.4118 132.448 13.0599 134.207 11.0713C135.966 9.08265 138.605 8.08834 142.123 8.08834C146.139 8.08834 149.275 10.2491 151.531 14.5705C153.787 18.8919 155.317 23.7105 156.12 29.0262C156.923 34.342 157.325 38.912 157.325 42.7363C157.325 44.113 157.286 45.3177 157.21 46.3502C157.134 47.3445 156.981 48.5874 156.751 50.0789C155.872 51.1879 154.992 51.7424 154.112 51.7424ZM153.195 33.5007C152.468 26.4257 151.168 20.8805 149.294 16.8651C147.42 12.8113 144.609 10.7845 140.861 10.7845C138.07 10.7845 136.004 12.0847 134.666 14.6852C133.366 17.2475 132.582 20.001 132.314 22.9457C132.046 25.8903 131.912 29.1983 131.912 32.8696L153.195 33.5007ZM129.733 6.59688C129.541 6.09972 129.446 5.52608 129.446 4.87595C129.446 3.53745 129.924 2.39017 130.88 1.4341C131.874 0.478034 133.002 0 134.264 0C135.297 0 136.234 0.172092 137.075 0.516277C137.917 0.822218 139.006 1.4341 140.345 2.35193C141.645 3.23151 142.85 3.6713 143.959 3.6713C144.915 3.6713 145.737 3.34624 146.426 2.69611C147.114 2.04599 147.63 1.1664 147.974 0.0573634C148.433 0.0191211 148.777 0.0956068 149.007 0.28682C149.236 0.439792 149.351 0.68837 149.351 1.03255C149.351 1.14728 149.313 1.35762 149.236 1.66356C148.816 2.81084 148.338 3.69042 147.802 4.30231C147.305 4.87595 146.636 5.29662 145.795 5.56432C145.144 5.75553 144.571 5.85114 144.074 5.85114C143.309 5.85114 142.582 5.71729 141.894 5.44959C141.205 5.14365 140.307 4.68474 139.198 4.07285C138.242 3.53745 137.438 3.13591 136.788 2.86821C136.138 2.60051 135.488 2.46666 134.838 2.46666C133.729 2.46666 132.926 2.71523 132.429 3.21239C131.932 3.70955 131.683 4.4744 131.683 5.50695C131.683 5.77465 131.721 6.25269 131.798 6.94106V7.11315C131.798 7.34261 131.683 7.49558 131.453 7.57206C131.262 7.64855 131.071 7.64855 130.88 7.57206C130.306 7.45734 129.924 7.13227 129.733 6.59688Z" fill="#0A122A"/>
<path d="M176.569 51.7424C173.395 51.7424 170.546 51.0923 168.022 49.7921C165.536 48.4918 163.586 46.6562 162.171 44.2851C160.756 41.9141 160.048 39.1797 160.048 36.082C160.048 33.9787 160.469 32.0474 161.31 30.2883C162.152 28.5291 163.375 27.1332 164.982 26.1007C166.588 25.0299 168.481 24.4945 170.661 24.4945C174.791 24.4945 178.462 25.202 181.674 26.617C184.925 27.9937 187.449 29.9823 189.247 32.5828C191.082 35.1833 192 38.1854 192 41.589C192 43.8453 191.159 45.7383 189.476 47.268C187.832 48.7978 185.805 49.9259 183.395 50.6525C181.024 51.3791 178.749 51.7424 176.569 51.7424ZM175.479 48.7595C179.303 48.7595 182.516 48.1859 185.116 47.0386C187.755 45.8913 189.074 43.9792 189.074 41.3022C189.074 36.6366 187.277 33.1373 183.682 30.8045C180.087 28.4335 175.498 27.248 169.915 27.248C167.238 27.248 165.345 28.0511 164.236 29.6573C163.165 31.2252 162.63 33.3668 162.63 36.082C162.63 38.3384 163.165 40.4417 164.236 42.3921C165.345 44.3042 166.875 45.8531 168.825 47.0386C170.775 48.1859 172.993 48.7595 175.479 48.7595Z" fill="#0A122A"/>
<path d="M69.2602 43.2646C67.0462 39.9605 65.6915 36.7022 65.196 33.4895C64.7536 30.2873 65.9938 27.707 68.9166 25.7485C69.965 25.046 71.1946 24.6825 72.6052 24.6579C74.0158 24.6334 75.4381 25.0384 76.8719 25.873C78.3376 26.6862 79.6664 27.9824 80.8586 29.7615C81.774 31.1276 82.4874 32.3298 82.999 33.368C83.5106 34.4063 83.8955 35.7365 84.1539 37.3587C84.4123 38.9809 84.369 40.8743 84.0241 43.0389C85.8756 41.0617 87.2868 39.0113 88.2576 36.8877C89.2284 34.7641 89.7328 32.7688 89.7709 30.9019C89.8619 29.0456 89.503 27.5138 88.6941 26.3065C88.3109 25.7346 87.8378 25.2691 87.2748 24.9098C86.7648 24.5609 86.0851 24.1648 85.2355 23.7213C84.195 23.2677 83.547 22.8502 83.2915 22.469C83.1851 22.3102 83.137 22.1353 83.1471 21.9443C83.2103 21.7639 83.4196 20.9844 83.5785 20.8779C84.8493 20.0264 86.1084 20.5585 87.5524 21.2021C89.0177 21.8775 90.2615 23.0466 91.2836 24.7094C92.6467 27.0184 93.0561 29.6904 92.5117 32.7251C91.999 35.7386 90.7914 38.6424 88.8888 41.4364C87.0075 44.2622 84.8119 46.516 82.3021 48.1978C81.8891 48.4745 80.0741 49.9966 79.269 50.444L78.4676 48.1432C80.105 45.2967 81.8741 42.1318 81.6135 39.5444C81.4059 36.9674 80.6634 34.7259 79.3861 32.8197C77.747 30.3734 76.2108 28.8709 74.7775 28.3121C73.3443 27.7533 71.9288 27.9423 70.5309 28.879C69.0695 29.8582 68.3836 31.3766 68.4733 33.4341C68.563 35.4915 69.3743 37.664 70.907 39.9514C71.7585 41.2222 72.5033 42.1963 73.1413 42.8736C73.8111 43.5296 74.5498 44.1855 75.3574 44.8412C76.0269 45.3594 76.5795 45.8407 77.0155 46.2851C77.4514 46.7296 77.9354 47.3489 78.4676 48.1432C79.0637 49.0327 79.3727 49.6313 79.3947 49.9388C79.4379 50.2781 79.2371 50.5968 78.7923 50.8948C78.4746 51.1077 77.6411 50.7225 76.2917 49.7393C74.9424 48.7561 73.5342 47.582 72.0673 46.2172C70.6004 44.8524 69.6646 43.8682 69.2602 43.2646Z" fill="#C480D9"/>
<path d="M77.6593 28.6802C77.0432 30.4429 76.9877 34.8176 76.9877 34.8176L74.8082 38.8598C74.0007 35.5774 73.8828 32.4347 74.4544 29.4319C75.0037 26.3979 76.3201 24.037 78.4035 22.3491C79.9419 21.1477 81.5155 20.4864 83.1244 20.365C84.7022 20.266 86.0679 20.207 86.9615 21.4486C87.0732 21.6038 86.9972 22.4073 86.9934 22.5985C86.9363 22.781 86.8301 22.928 86.6749 23.0397C86.3024 23.3078 85.5495 23.4728 84.4161 23.5346C83.4651 23.6536 82.6898 23.7875 82.0902 23.9364C81.4372 24.0765 80.8313 24.3477 80.2726 24.7498C79.0931 25.5987 78.222 26.9088 77.6593 28.6802Z" fill="#C480D9"/>
<rect x="67.0835" y="28.3558" width="22.9457" height="9.56069" fill="#C480D9"/>
<rect x="76.8156" y="25.0012" width="9.29406" height="9.56069" transform="rotate(-26.378 76.8156 25.0012)" fill="#C480D9"/>
<rect x="70.9077" y="28.6608" width="9.29406" height="9.56069" transform="rotate(-26.378 70.9077 28.6608)" fill="#C480D9"/>
<rect x="74.2637" y="42.0613" width="13.4842" height="9.56069" transform="rotate(-49.7732 74.2637 42.0613)" fill="#C480D9"/>
<rect x="74.8131" y="34.0922" width="13.4842" height="9.56069" transform="rotate(37.48 74.8131 34.0922)" fill="#C480D9"/>
<rect x="67.0835" y="38.2553" width="24.235" height="9.56069" transform="rotate(-40.1791 67.0835 38.2553)" fill="#C480D9"/>
<path d="M63.602 19.8836C63.3251 19.2179 63.2243 18.5517 63.2997 17.885C63.3914 17.2248 63.6457 16.6292 64.0626 16.0984C64.4958 15.574 65.0652 15.1651 65.7708 14.8715C66.9275 14.3903 67.9606 14.4436 68.8701 15.0314C69.7842 15.6305 70.4924 16.5337 70.9947 17.741C71.2247 18.2938 71.2995 18.865 71.2191 19.4544C71.1433 20.055 70.9062 20.6103 70.5077 21.1202C70.1093 21.6301 69.5688 22.0271 68.8863 22.311C68.146 22.619 67.4208 22.7023 66.7107 22.561C66.0121 22.4149 65.3857 22.0997 64.8315 21.6156C64.2935 21.1379 63.8837 20.5606 63.602 19.8836Z" fill="#C480D9"/>
<path d="M80.7501 14.1243C80.3315 14.7231 79.8061 15.1643 79.1742 15.4478C78.5381 15.7133 77.8609 15.7989 77.1426 15.7047C76.4202 15.5926 75.7171 15.2975 75.0335 14.8196C73.9129 14.0361 73.337 13.082 73.3059 11.9571C73.2818 10.8221 73.6495 9.7116 74.4087 8.62555C74.7564 8.12821 75.2138 7.7604 75.7808 7.52214C76.3549 7.27373 76.9863 7.19385 77.6751 7.28252C78.3639 7.37119 79.0389 7.64665 79.7001 8.1089C80.4173 8.61032 80.9278 9.21655 81.2316 9.92756C81.5241 10.6307 81.6245 11.3582 81.5327 12.11C81.4367 12.8439 81.1759 13.5153 80.7501 14.1243Z" fill="#C480D9"/>
<path d="M90.198 19.0614C89.4469 19.2314 88.7251 19.2058 88.0328 18.9848C87.35 18.747 86.7632 18.3423 86.2725 17.7706C85.7914 17.1821 85.4555 16.4664 85.2648 15.6235C84.9521 14.2415 85.1839 13.1068 85.96 12.2194C86.7489 11.3291 87.8245 10.7298 89.1867 10.4216C89.8105 10.2805 90.4273 10.3153 91.0371 10.5259C91.6595 10.7337 92.2066 11.1111 92.6783 11.6581C93.1501 12.2051 93.4782 12.8862 93.6626 13.7016C93.8627 14.586 93.8278 15.4074 93.5577 16.1658C93.2846 16.9104 92.8449 17.5401 92.2387 18.0549C91.6421 18.5531 90.9619 18.8886 90.198 19.0614Z" fill="#C480D9"/>
</svg>
